<svg width="400" height="400" viewBox="0 0 400 400" fill="none" xmlns="http://www.w3.org/2000/svg">
<circle cx="200" cy="200" r="200" fill="#FFF4C9"/>
<circle cx="200" cy="200" r="199.5" stroke="#A44A3F" stroke-opacity="0.3"/>
<g filter="url(#filter0_n_222_71)">
<path d="M111.248 252.424C106.896 252.595 102.885 252.04 99.216 250.76C95.632 249.565 92.688 247.901 90.384 245.768C88.1653 243.635 86.7573 241.16 86.16 238.344C85.5627 235.443 86.0747 232.499 87.696 229.512C89.9147 225.928 94.352 224.861 101.008 226.312C106.043 227.336 109.499 227.891 111.376 227.976C113.339 228.061 115.003 227.805 116.368 227.208C122.597 225.16 126.096 222.941 126.864 220.552C127.376 218.76 126.267 216.669 123.536 214.28C122.427 213.256 121.189 212.232 119.824 211.208C118.459 210.184 117.307 209.16 116.368 208.136C112.101 204.979 108.731 201.352 106.256 197.256C103.867 193.075 102.885 188.552 103.312 183.688C103.739 178.824 104.549 174.813 105.744 171.656C106.939 168.413 108.432 165.555 110.224 163.08C113.381 158.728 117.477 155.187 122.512 152.456C128.315 149.469 132.965 147.549 136.464 146.696C143.376 145.16 150.373 145.032 157.456 146.312C159.845 146.739 161.893 147.549 163.6 148.744C165.307 149.939 167.013 151.176 168.72 152.456C171.707 155.443 172.432 158.472 170.896 161.544C170.299 162.909 169.36 164.019 168.08 164.872C166.8 165.725 165.435 166.195 163.984 166.28C164.155 168.584 163.728 170.291 162.704 171.4C160.741 173.363 157.328 174.643 152.464 175.24C145.467 174.728 140.731 175.112 138.256 176.392C135.355 177.928 134.288 181.256 135.056 186.376C135.227 187.485 135.909 188.637 137.104 189.832C138.384 191.027 139.835 192.307 141.456 193.672C143.163 195.037 144.912 196.573 146.704 198.28C148.581 199.987 150.203 201.949 151.568 204.168C156.347 212.019 155.963 221.192 150.416 231.688C146.32 239.539 139.323 245.427 129.424 249.352C124.304 251.4 118.245 252.424 111.248 252.424Z" fill="#557D93"/>
<path d="M196.83 143.749C200.033 143.696 202.629 144.82 204.618 147.12C207.36 156.533 210.231 165.824 213.232 174.993C216.196 184.085 218.535 191.817 220.252 198.188C221.931 204.482 223.246 209.172 224.197 212.256C225.222 215.298 226.172 218.382 227.049 221.509L227.57 224.298C227.836 225.224 228.065 226.074 228.256 226.847C228.485 227.696 228.733 228.584 228.999 229.51C228.128 233.137 225.911 235.96 222.347 237.98C218.561 240.125 215.063 240.834 211.855 240.106C209.99 239.792 208.654 237.66 207.847 233.711C207.539 232.123 206.894 230.237 205.911 228.052C204.965 225.748 204.208 223.827 203.64 222.289L203.527 222.059C201.714 224.163 200.257 226.409 199.154 228.796C198.014 231.107 197.316 232.58 197.059 233.215C196.764 233.773 196.302 234.378 195.673 235.028C195.006 235.602 194.395 236.095 193.839 236.508C192.466 237.384 191.614 238.161 191.283 238.838C190.901 249.238 189.229 255.864 186.267 258.718C184.454 260.627 182.376 262 180.034 262.837C177.73 263.751 175.381 263.417 172.987 261.837C169.479 260.887 166.979 254.274 165.486 241.999C164.737 235.471 164.276 227.409 164.104 217.813C163.968 208.098 164.174 199.462 164.723 191.905C165.924 175.655 168.774 160.919 173.273 147.697C174.382 146.285 175.564 144.734 176.82 143.043C178.038 141.276 179.408 139.912 180.929 138.952C182.525 137.95 184.29 137.195 186.224 136.687C188.158 136.178 189.945 136.047 191.586 136.292C195.389 136.878 197.137 139.364 196.83 143.749ZM187.885 187.446C188.59 192.922 189.125 198.053 189.491 202.84C189.819 207.55 190.143 211.675 190.463 215.214L199.091 209.885C197.27 204.65 195.542 199.411 193.907 194.169C192.272 188.926 190.6 183.705 188.89 178.505L187.885 187.446ZM196.199 212.111C197.239 211.522 198.24 210.856 199.204 210.114L199.148 209.999C198.22 210.623 197.367 211.204 196.588 211.744C195.809 212.283 195.68 212.405 196.199 212.111Z" fill="#A44A3F"/>
<path d="M232.902 249.581C232.856 253.102 230.712 255.767 226.473 257.577C222.565 259.308 218.611 259.777 214.611 258.986C210.178 258.21 207.878 256.176 207.711 252.882C206.199 248.158 206.524 237.025 208.689 219.484C211.893 193.182 216.55 173.813 222.659 161.375C224.256 158.183 225.723 156.032 227.059 154.921C228.46 153.706 230.086 152.525 231.938 151.377C233.789 150.23 235.731 149.104 237.766 148C241.835 145.792 245.734 144.02 249.463 142.683C253.257 141.244 256.838 140.864 260.205 141.545C263.555 142.142 266.339 143.577 268.558 145.851C270.86 148.104 272.604 151.018 273.788 154.593C274.955 158.084 275.627 161.915 275.803 166.083C275.962 170.169 275.599 174.467 274.714 178.979C273.812 183.408 272.4 187.695 270.48 191.842C266.283 200.924 260.521 207.532 253.195 211.664L254.885 213.494C256.314 214.905 257.985 216.433 259.898 218.078C261.894 219.703 263.858 221.38 265.788 223.108C267.802 224.817 269.65 226.565 271.332 228.353C273.014 230.142 274.337 231.885 275.303 233.582C277.488 237.355 277.072 240.57 274.055 243.226C271.668 245.556 269.598 246.493 267.847 246.037C267.096 245.779 266.318 245.396 265.514 244.888C264.728 244.463 263.711 244.182 262.462 244.044C257.864 246.642 253.869 246.288 250.474 242.982C248.373 240.856 246.689 238.848 245.422 236.96C244.155 235.072 243.082 233.488 242.204 232.208C240.063 229.477 237.803 227.214 235.422 225.418C234.982 227.893 234.549 231.024 234.122 234.811C233.639 239.578 233.025 244.551 232.28 249.731L232.902 249.581ZM242.765 170.616C241.941 174.587 241.388 177.352 241.105 178.912C240.538 182.031 239.908 185.472 239.215 189.236C239.351 191.134 239.415 192.478 239.407 193.27L240.781 191.096L242.687 189.585C244.005 188.39 245.217 187.309 246.321 186.341C247.426 185.373 248.371 184.269 249.156 183.027C250.662 180.646 251.665 177.115 252.166 172.432C251.991 171.597 251.94 170.732 252.014 169.837C252.171 168.922 252.203 168.036 252.111 167.181C252.058 165.264 251.04 164.149 249.058 163.837C247.363 164.069 245.578 165.947 243.702 169.469C243.326 170.174 243.014 170.556 242.765 170.616Z" fill="#F6D44E"/>
<path d="M325.995 166.454C328.896 167.99 330.731 170.251 331.499 173.238C329.792 182.795 328.256 192.31 326.891 201.782C325.525 211.168 324.203 219.062 322.923 225.462C321.643 231.776 320.747 236.512 320.235 239.67C319.808 242.827 319.296 245.984 318.699 249.142L317.931 251.83C317.76 252.768 317.589 253.622 317.419 254.39C317.248 255.243 317.077 256.139 316.907 257.078C314.517 259.808 311.275 261.174 307.179 261.174C302.827 261.174 299.371 260.064 296.811 257.846C295.275 256.651 295.019 254.134 296.043 250.294C296.469 248.758 296.725 246.795 296.811 244.406C296.981 241.931 297.152 239.883 297.323 238.262V238.006C294.763 238.944 292.459 240.182 290.411 241.718C288.363 243.168 287.083 244.107 286.571 244.534C286.059 244.875 285.376 245.174 284.523 245.43C283.669 245.6 282.901 245.728 282.219 245.814C280.597 245.899 279.488 246.155 278.891 246.582C273.941 255.456 269.504 260.406 265.579 261.43C263.104 262.198 260.629 262.368 258.155 261.942C255.68 261.6 253.717 260.15 252.267 257.59C249.536 255.03 250.219 248.032 254.315 236.598C256.533 230.539 259.691 223.286 263.787 214.838C267.968 206.304 271.979 198.88 275.819 192.566C284.096 178.998 293.184 167.563 303.083 158.262C304.704 157.579 306.453 156.811 308.331 155.958C310.208 155.019 312.043 154.507 313.835 154.422C315.712 154.336 317.632 154.55 319.595 155.062C321.557 155.574 323.221 156.342 324.587 157.366C327.744 159.755 328.213 162.784 325.995 166.454ZM298.603 200.118C296.811 205.238 295.019 209.974 293.227 214.326C291.435 218.592 289.899 222.347 288.619 225.59L298.731 225.206C299.413 219.744 300.181 214.326 301.035 208.95C301.888 203.574 302.699 198.198 303.467 192.822L298.603 200.118ZM295.147 225.718C296.341 225.718 297.536 225.632 298.731 225.462V225.334C297.621 225.419 296.597 225.504 295.659 225.59C294.72 225.675 294.549 225.718 295.147 225.718Z" fill="#CBDFBD"/>
</g>
<defs>
<filter id="filter0_n_222_71" x="85.264" y="130.129" width="246.234" height="138.204" filterUnits="userSpaceOnUse" color-interpolation-filters="sRGB">
<feFlood flood-opacity="0" result="BackgroundImageFix"/>
<feBlend mode="normal" in="SourceGraphic" in2="BackgroundImageFix" result="shape"/>
<feTurbulence type="fractalNoise" baseFrequency="0.40000000596046448 0.40000000596046448" stitchTiles="stitch" numOctaves="3" result="noise" seed="1409" />
<feColorMatrix in="noise" type="luminanceToAlpha" result="alphaNoise" />
<feComponentTransfer in="alphaNoise" result="coloredNoise1">
<feFuncA type="discrete" tableValues="0 0 0 0 0 0 0 0 0 0 0 0 1 1 1 1 1 1 1 1 1 1 1 1 1 1 1 1 1 1 1 1 1 1 1 1 1 1 0 0 0 0 0 0 0 0 0 0 0 0 0 0 0 0 0 0 0 0 0 0 0 0 0 0 0 0 0 0 0 0 0 0 0 0 0 0 0 0 0 0 0 0 0 0 0 0 0 0 0 0 0 0 0 0 0 0 0 0 0 0 "/>
</feComponentTransfer>
<feComposite operator="in" in2="shape" in="coloredNoise1" result="noise1Clipped" />
<feFlood flood-color="#FFF4C9" result="color1Flood" />
<feComposite operator="in" in2="noise1Clipped" in="color1Flood" result="color1" />
<feMerge result="effect1_noise_222_71">
<feMergeNode in="shape" />
<feMergeNode in="color1" />
</feMerge>
</filter>
</defs>
</svg>
